<?xml version="1.0" encoding="UTF-8" standalone="no"?>
<!-- Created with Inkscape (http://www.inkscape.org/) -->

<svg
   xmlns:dc="http://purl.org/dc/elements/1.1/"
   xmlns:cc="http://creativecommons.org/ns#"
   xmlns:rdf="http://www.w3.org/1999/02/22-rdf-syntax-ns#"
   xmlns:svg="http://www.w3.org/2000/svg"
   xmlns="http://www.w3.org/2000/svg"
   xmlns:sodipodi="http://sodipodi.sourceforge.net/DTD/sodipodi-0.dtd"
   xmlns:inkscape="http://www.inkscape.org/namespaces/inkscape"
   width="65.512901mm"
   height="65.510399mm"
   viewBox="0 0 65.512901 65.510399"
   version="1.1"
   id="svg8"
   inkscape:version="0.92.2 5c3e80d, 2017-08-06"
   sodipodi:docname="search.svg">
  <defs
     id="defs2" />
  <sodipodi:namedview
     id="base"
     pagecolor="#ffffff"
     bordercolor="#666666"
     borderopacity="1.0"
     inkscape:pageopacity="0.0"
     inkscape:pageshadow="2"
     inkscape:zoom="1"
     inkscape:cx="139.5207"
     inkscape:cy="116.44411"
     inkscape:document-units="mm"
     inkscape:current-layer="layer1"
     showgrid="false"
     inkscape:pagecheckerboard="false"
     showborder="false"
     showguides="true"
     inkscape:guide-bbox="true"
     inkscape:snap-bbox="false"
     inkscape:object-paths="false"
     inkscape:snap-nodes="false"
     fit-margin-top="0"
     fit-margin-left="0"
     fit-margin-right="0"
     fit-margin-bottom="0"
     inkscape:window-width="951"
     inkscape:window-height="694"
     inkscape:window-x="1548"
     inkscape:window-y="243"
     inkscape:window-maximized="0" />
  <metadata
     id="metadata5">
    <rdf:RDF>
      <cc:Work
         rdf:about="">
        <dc:format>image/svg+xml</dc:format>
        <dc:type
           rdf:resource="http://purl.org/dc/dcmitype/StillImage" />
        <dc:title></dc:title>
      </cc:Work>
    </rdf:RDF>
  </metadata>
  <g
     inkscape:label="Layer 1"
     inkscape:groupmode="layer"
     id="layer1"
     transform="translate(87.047916,-178.73121)">
    <g
       id="g837"
       transform="translate(-6.8791667,-4.7625)">
      <path
         id="path815"
         transform="scale(0.26458333)"
         d="m -204.5,693.51953 a 98.500003,98.500003 0 0 0 -98.5,98.5 98.500003,98.500003 0 0 0 98.5,98.5 98.500003,98.500003 0 0 0 98.5,-98.5 98.500003,98.500003 0 0 0 -98.5,-98.5 z m 0,12 a 86.500003,86.500003 0 0 1 86.5,86.5 86.500003,86.500003 0 0 1 -86.5,86.5 86.500003,86.500003 0 0 1 -86.5,-86.5 86.500003,86.500003 0 0 1 86.5,-86.5 z"
         style="opacity:1;fill:#000000;fill-opacity:1;stroke:none;stroke-width:2.18078732;stroke-linecap:round;stroke-linejoin:round;stroke-miterlimit:4;stroke-dasharray:none;stroke-opacity:1"
         inkscape:connector-curvature="0" />
      <path
         inkscape:connector-curvature="0"
         id="rect830"
         d="m -37.744972,225.91498 c 1.008176,-1.00818 2.631453,-1.00818 3.63963,10e-6 l 18.693364,18.69336 c 1.008176,1.00818 1.008176,2.63145 0,3.63962 -1.008177,1.00818 -2.631447,1.00818 -3.639624,0 l -18.693364,-18.69336 c -1.008176,-1.00817 -1.008183,-2.63145 -6e-6,-3.63963 z"
         style="opacity:1;fill:#000000;fill-opacity:1;stroke:none;stroke-width:0.91329211;stroke-linecap:round;stroke-linejoin:round;stroke-miterlimit:4;stroke-dasharray:none;stroke-opacity:1" />
    </g>
  </g>
</svg>
