<?xml version="1.0" encoding="UTF-8" standalone="no"?>
<!-- Created with Inkscape (http://www.inkscape.org/) -->

<svg
   xmlns:dc="http://purl.org/dc/elements/1.1/"
   xmlns:cc="http://creativecommons.org/ns#"
   xmlns:rdf="http://www.w3.org/1999/02/22-rdf-syntax-ns#"
   xmlns:svg="http://www.w3.org/2000/svg"
   xmlns="http://www.w3.org/2000/svg"
   xmlns:sodipodi="http://sodipodi.sourceforge.net/DTD/sodipodi-0.dtd"
   xmlns:inkscape="http://www.inkscape.org/namespaces/inkscape"
   width="97.113861mm"
   height="97.113586mm"
   viewBox="0 0 97.113861 97.113586"
   version="1.1"
   id="svg8"
   inkscape:version="0.92.2 5c3e80d, 2017-08-06"
   sodipodi:docname="settings.svg">
  <defs
     id="defs2" />
  <sodipodi:namedview
     id="base"
     pagecolor="#ffffff"
     bordercolor="#666666"
     borderopacity="1.0"
     inkscape:pageopacity="0.0"
     inkscape:pageshadow="2"
     inkscape:zoom="1"
     inkscape:cx="205.93994"
     inkscape:cy="177.58992"
     inkscape:document-units="mm"
     inkscape:current-layer="layer1"
     showgrid="false"
     showborder="false"
     fit-margin-top="0"
     fit-margin-left="0"
     fit-margin-right="0"
     fit-margin-bottom="0"
     inkscape:window-width="952"
     inkscape:window-height="649"
     inkscape:window-x="1885"
     inkscape:window-y="157"
     inkscape:window-maximized="0" />
  <metadata
     id="metadata5">
    <rdf:RDF>
      <cc:Work
         rdf:about="">
        <dc:format>image/svg+xml</dc:format>
        <dc:type
           rdf:resource="http://purl.org/dc/dcmitype/StillImage" />
        <dc:title></dc:title>
      </cc:Work>
    </rdf:RDF>
  </metadata>
  <g
     inkscape:label="Layer 1"
     inkscape:groupmode="layer"
     id="layer1"
     transform="translate(85.903871,-75.421608)">
    <path
       style="opacity:1;fill:#464646;fill-opacity:1;stroke:none;stroke-width:1;stroke-linecap:round;stroke-linejoin:round;stroke-miterlimit:4;stroke-dasharray:none;stroke-opacity:1"
       d="m -5.4490816,87.223488 c -1.4898944,-1.484545 -3.8847482,-1.480228 -5.3692904,0.0097 l -7.840645,7.868929 a 34.424315,34.424315 0 0 0 -11.604858,-4.792622 l -0.01999,-11.09814 c -0.0019,-1.051624 -0.426767,-2.000229 -1.114215,-2.685206 -0.687466,-0.684957 -1.637578,-1.10643 -2.6892,-1.104535 l -6.694255,0.01205 c -2.103247,0.0038 -3.793529,1.70017 -3.789739,3.803419 l 0.01997,11.089367 a 34.424315,34.424315 0 0 0 -11.583485,4.847177 l -7.87296,-7.844653 c -1.489614,-1.484831 -3.884744,-1.480238 -5.369292,0.0097 l -4.724955,4.742001 c -1.48454,1.489888 -1.480228,3.884745 0.0097,5.369289 l 7.874432,7.846106 a 34.424315,34.424315 0 0 0 -4.811263,11.5994 l -11.084996,0.02 c -2.103252,0.004 -3.793527,1.70017 -3.789742,3.80341 l 0.01205,6.69426 c 0.0038,2.10324 1.700161,3.79354 3.803411,3.78975 l 11.101793,-0.02 a 34.424315,34.424315 0 0 0 4.828909,11.58935 l -7.838812,7.8671 c -1.484554,1.48991 -1.480233,3.88476 0.0097,5.3693 l 4.742032,4.72493 c 1.489613,1.48483 3.884756,1.48022 5.369292,-0.01 l 7.849401,-7.87773 a 34.424315,34.424315 0 0 0 11.59612,4.81092 l 0.01996,11.08864 c 0.0038,2.10325 1.700164,3.79353 3.803411,3.78975 l 6.694249,-0.0121 c 2.103252,-0.004 3.793534,-1.70018 3.78974,-3.80341 l -0.02002,-11.1113 a 34.424315,34.424315 0 0 0 11.597425,-4.81138 l 7.859057,7.83079 c 1.4896133,1.48483 3.8847506,1.48023 5.3692923,-0.01 l 4.72495508,-4.742 c 1.48454668,-1.4899 1.48022805,-3.88475 -0.009666,-5.36929 L -8.4635648,142.67277 A 34.424315,34.424315 0 0 0 -3.6881281,131.061 l 11.108377,-0.02 c 2.1032431,-0.004 3.7935241,-1.70015 3.7897381,-3.8034 l -0.01205,-6.69427 c -0.0019,-1.05162 -0.426763,-2.00024 -1.114212,-2.68521 -0.6874672,-0.68496 -1.6375775,-1.10643 -2.6892014,-1.10454 l -11.0842535,0.02 a 34.424315,34.424315 0 0 0 -4.8562996,-11.57944 l 7.84866869,-7.876983 c 1.48454527,-1.489895 1.48022867,-3.884748 -0.00967,-5.369291 z M -22.051978,107.80101 a 22.26355,22.26355 45 0 1 1.015248,31.3312 l -0.539063,0.56077 a 22.26355,22.26355 45 0 1 -31.347289,0.19312 22.26355,22.26355 45 0 1 -0.467163,-31.34387 22.26355,22.26355 45 0 1 31.338265,-0.74122 z"
       id="rect817"
       inkscape:connector-curvature="0" />
    <path
       style="opacity:1;fill:#3d3d3d;fill-opacity:1;stroke:none;stroke-width:1;stroke-linecap:round;stroke-linejoin:round;stroke-miterlimit:4;stroke-dasharray:none;stroke-opacity:1"
       d="M -3.0781075,89.585937 -21.648205,108.22304 a 22.26355,22.26355 45 0 1 0.611453,30.90913 l -0.53907,0.56079 a 22.26355,22.26355 45 0 1 -31.347283,0.19312 22.26355,22.26355 45 0 1 -0.131929,-0.14291 l -18.560972,18.62794 2.370983,2.3625 c 1.489615,1.48483 3.884755,1.48022 5.369297,-0.01 l 7.849393,-7.87772 a 34.424315,34.424315 0 0 0 11.596119,4.81091 l 0.01997,11.08864 c 0.0038,2.10325 1.700159,3.79354 3.803412,3.78975 l 6.694262,-0.0121 c 2.10324,-0.004 3.793526,-1.70016 3.789738,-3.80341 l -0.02001,-11.11129 A 34.424315,34.424315 0 0 0 -18.54541,152.797 l 7.859066,7.8308 c 1.4896151,1.48483 3.8847427,1.48024 5.3692851,-0.01 l 4.7249551,-4.742 c 1.48454668,-1.4899 1.48023145,-3.88476 -0.00967,-5.3693 l -7.8619952,-7.83368 a 34.424315,34.424315 0 0 0 4.7754391,-11.61178 l 11.1083734,-0.02 c 2.1032431,-0.004 3.7935285,-1.70016 3.7897415,-3.80341 l -0.01192,-6.69439 c -0.0019,-1.05163 -0.426767,-2.00023 -1.114214,-2.68521 -0.6874675,-0.68496 -1.6375775,-1.10643 -2.6892005,-1.10454 l -11.0842571,0.02 a 34.424315,34.424315 0 0 0 -4.8562975,-11.57945 l 7.84866866,-7.876982 c 1.48454458,-1.489894 1.4802308,-3.884748 -0.009669,-5.36929 z"
       id="rect853"
       inkscape:connector-curvature="0" />
  </g>
</svg>
